<svg width="20.000000" height="20.000000" viewBox="0 0 20 20" fill="none" xmlns="http://www.w3.org/2000/svg" xmlns:xlink="http://www.w3.org/1999/xlink">
	<path d="M17.06 0L2.92 0C1.31 0 -0.01 1.31 -0.01 2.92L-0.01 17.07C-0.01 18.68 1.31 20 2.92 20L8.82 20L8.82 12.92L6.48 12.92L6.48 9.41L8.82 9.41L8.82 7.03C8.82 5.09 10.4 3.51 12.34 3.51L15.89 3.51L15.89 7.03L12.34 7.03L12.34 9.41L15.89 9.41L15.31 12.92L12.34 12.92L12.34 20L17.06 20C18.68 20 19.99 18.68 19.99 17.07L19.99 2.92C19.99 1.31 18.68 0 17.06 0Z" fill="#000000" fill-opacity="1.000000" fill-rule="nonzero"/>
</svg>
